<?xml version="1.0" encoding="UTF-8"?> <svg xmlns="http://www.w3.org/2000/svg" viewBox="0 0 545.54 233.06"><defs><style>.f64979b1-e4e6-487f-a923-58bbaefee8cb{fill:#1f4f6a;}.b9607888-8dc3-4e32-a1a9-7d30fb9dfe37{fill:#52a2d9;}.ee8fd58e-5835-4ead-9e9f-b9590d2dcbdc{fill:#2ca2a1;}.fac54b69-4cfa-4fc2-ad95-3a53405659b9{fill:#f15d4f;}</style></defs><title>Asset 1</title><g id="ea310d33-9c71-4387-a247-deea83a500e1" data-name="Layer 2"><g id="bf2be0a0-f1af-491e-be8b-c6b62e1d7e08" data-name="CMYK"><path class="f64979b1-e4e6-487f-a923-58bbaefee8cb" d="M0,76.86H10.22L17,104.14h.12L26,76.86h8.72l8.83,28h.12l7.16-28h9.49L47.9,119.41H39.55L30.17,90h-.12l-9.38,29.45H12.62Z"></path><path class="f64979b1-e4e6-487f-a923-58bbaefee8cb" d="M64.54,76.86h9.38V92.72H92.13V76.86h9.38v42.55H92.13V101H73.92v18.39H64.54Z"></path><path class="f64979b1-e4e6-487f-a923-58bbaefee8cb" d="M110.52,76.86h28.91v8.65H119.89v7.94h18.45v8.65H119.89v8.66h20.62v8.65h-30Z"></path><path class="f64979b1-e4e6-487f-a923-58bbaefee8cb" d="M148.38,76.86h28.91v8.65H157.75v7.94H176.2v8.65H157.75v8.66h20.62v8.65h-30Z"></path><path class="f64979b1-e4e6-487f-a923-58bbaefee8cb" d="M186.24,76.86h9.37v33.9H213v8.65H186.24Z"></path><path class="f64979b1-e4e6-487f-a923-58bbaefee8cb" d="M218.51,76.86h28.91v8.65H227.89v7.94h18.45v8.65H227.89v8.66H248.5v8.65h-30Z"></path><path class="f64979b1-e4e6-487f-a923-58bbaefee8cb" d="M256,76.86h16.47c8.71,0,16,3,16,12.92,0,6-3.18,10.58-9.19,11.66l10.82,18H278.91l-8.9-17h-4.63v17H256Zm9.37,17.61h5.53c3.43,0,7.88-.12,7.88-4.75,0-4.27-3.85-4.93-7.28-4.93h-6.13Z"></path><path class="b9607888-8dc3-4e32-a1a9-7d30fb9dfe37" d="M180.59,233.06a250.11,250.11,0,0,0,94.84-94.25H180.59Z"></path><path class="ee8fd58e-5835-4ead-9e9f-b9590d2dcbdc" d="M239.82,58.92A156,156,0,0,0,180.74,0V58.92Z"></path><path class="fac54b69-4cfa-4fc2-ad95-3a53405659b9" d="M52.92,138.81a127.34,127.34,0,0,0,48.25,48v-48Z"></path><path class="f64979b1-e4e6-487f-a923-58bbaefee8cb" d="M101,20.27A102.39,102.39,0,0,0,62.26,58.92H101Z"></path><path class="f64979b1-e4e6-487f-a923-58bbaefee8cb" d="M306.67,138.84h1.08v6.75h0a3.1,3.1,0,0,1,2.84-1.67c2.6,0,3.17,1.76,3.17,3.58v4.95h-1.08v-4.9c0-1.35-.38-2.66-2.09-2.66s-2.88,1.12-2.88,3.4v4.16h-1.08Z"></path><path class="f64979b1-e4e6-487f-a923-58bbaefee8cb" d="M328.36,150.88a4.31,4.31,0,0,1-7.81-2.61,4.13,4.13,0,0,1,4.16-4.35,3.78,3.78,0,0,1,3.91,3.89v.75h-7a3.11,3.11,0,0,0,3.15,3.14,3.34,3.34,0,0,0,2.79-1.48Zm-.83-3.29a2.79,2.79,0,0,0-2.88-2.7,3.09,3.09,0,0,0-3,2.7Z"></path><path class="f64979b1-e4e6-487f-a923-58bbaefee8cb" d="M335.54,138.84h1.08v13.61h-1.08Z"></path><path class="f64979b1-e4e6-487f-a923-58bbaefee8cb" d="M343.79,144.13h1.08v1.46h0a3.84,3.84,0,0,1,3.33-1.67,4.38,4.38,0,1,1,0,8.75A3.83,3.83,0,0,1,344.9,151h0v5.57h-1.08Zm4.44,7.57a3.41,3.41,0,0,0,0-6.81,3.41,3.41,0,1,0,0,6.81Z"></path><path class="f64979b1-e4e6-487f-a923-58bbaefee8cb" d="M360.26,150.83a.87.87,0,1,1-.87.87A.86.86,0,0,1,360.26,150.83Z"></path><path class="f64979b1-e4e6-487f-a923-58bbaefee8cb" d="M377.39,138.84h1.08v6.75h0a3.1,3.1,0,0,1,2.84-1.67c2.6,0,3.17,1.76,3.17,3.58v4.95h-1.08v-4.9c0-1.35-.37-2.66-2.09-2.66s-2.88,1.12-2.88,3.4v4.16h-1.08Z"></path><path class="f64979b1-e4e6-487f-a923-58bbaefee8cb" d="M395.65,143.92a4.38,4.38,0,1,1-4.38,4.37A4.21,4.21,0,0,1,395.65,143.92Zm0,7.78a3.41,3.41,0,1,0-3.3-3.41A3.23,3.23,0,0,0,395.65,151.7Z"></path><path class="f64979b1-e4e6-487f-a923-58bbaefee8cb" d="M406.53,144.13h1.09v1.46h0a3.84,3.84,0,0,1,3.33-1.67,4.38,4.38,0,1,1,0,8.75,3.83,3.83,0,0,1-3.33-1.68h0v5.57h-1.09ZM411,151.7a3.41,3.41,0,0,0,0-6.81,3.41,3.41,0,1,0,0,6.81Z"></path><path class="f64979b1-e4e6-487f-a923-58bbaefee8cb" d="M429.45,150.88a4.31,4.31,0,0,1-7.81-2.61,4.13,4.13,0,0,1,4.16-4.35,3.78,3.78,0,0,1,3.9,3.89v.75h-7a3.11,3.11,0,0,0,3.15,3.14,3.34,3.34,0,0,0,2.79-1.48Zm-.83-3.29a2.8,2.8,0,0,0-2.88-2.7,3.08,3.08,0,0,0-3,2.7Z"></path><path class="f64979b1-e4e6-487f-a923-58bbaefee8cb" d="M437.35,150.83a.87.87,0,1,1-.86.87A.86.86,0,0,1,437.35,150.83Z"></path><path class="f64979b1-e4e6-487f-a923-58bbaefee8cb" d="M454.49,138.84h1.08v6.75h0a3.12,3.12,0,0,1,2.85-1.67c2.59,0,3.17,1.76,3.17,3.58v4.95h-1.08v-4.9c0-1.35-.38-2.66-2.09-2.66s-2.88,1.12-2.88,3.4v4.16h-1.08Z"></path><path class="f64979b1-e4e6-487f-a923-58bbaefee8cb" d="M476.18,150.88a4.31,4.31,0,0,1-7.81-2.61,4.12,4.12,0,0,1,4.15-4.35,3.78,3.78,0,0,1,3.91,3.89v.75h-7a3.11,3.11,0,0,0,3.15,3.14,3.35,3.35,0,0,0,2.79-1.48Zm-.83-3.29a2.8,2.8,0,0,0-2.88-2.7,3.08,3.08,0,0,0-3,2.7Z"></path><path class="f64979b1-e4e6-487f-a923-58bbaefee8cb" d="M489.64,149a26.5,26.5,0,0,0,.16,3.49h-1a7.24,7.24,0,0,1-.11-1.35h0a3,3,0,0,1-2.91,1.57c-1.43,0-2.94-.7-2.94-2.47,0-2.54,3-2.79,4.61-2.79h1.26v-.5c0-1.44-1-2-2.34-2a3.77,3.77,0,0,0-2.54.94l-.63-.74a4.83,4.83,0,0,1,3.17-1.17c2,0,3.31.9,3.31,3Zm-2.16-.69c-1.8,0-3.6.45-3.6,1.88a1.72,1.72,0,0,0,1.89,1.55,2.59,2.59,0,0,0,2.9-2.87v-.56Z"></path><path class="f64979b1-e4e6-487f-a923-58bbaefee8cb" d="M497,138.84h1.08v13.61H497Z"></path><path class="f64979b1-e4e6-487f-a923-58bbaefee8cb" d="M506.24,140a.81.81,0,1,1-.81.81A.81.81,0,0,1,506.24,140Zm-.54,4.1h1.08v8.32H505.7Z"></path><path class="f64979b1-e4e6-487f-a923-58bbaefee8cb" d="M514.17,146.47c0-.61-.09-1.91-.09-2.34h1.08c0,.62,0,1.3.08,1.46h0a3.1,3.1,0,0,1,2.85-1.67c2.59,0,3.16,1.76,3.16,3.58v4.95h-1.08v-4.9c0-1.35-.37-2.66-2.08-2.66s-2.89,1.12-2.89,3.4v4.16h-1.08Z"></path><path class="f64979b1-e4e6-487f-a923-58bbaefee8cb" d="M536.87,151.91c0,4.14-2.73,4.86-4.42,4.86a5.28,5.28,0,0,1-4.13-1.74l.85-.8a3.89,3.89,0,0,0,3.28,1.57c3.29,0,3.34-2.88,3.34-3.82v-1.15h0a3.59,3.59,0,0,1-3.15,1.62,4.27,4.27,0,1,1,0-8.53,3.59,3.59,0,0,1,3.15,1.62h0v-1.41h1.08Zm-4.33-7a3.3,3.3,0,1,0,3.29,3.29A3.3,3.3,0,0,0,532.54,144.89Z"></path><path class="f64979b1-e4e6-487f-a923-58bbaefee8cb" d="M544.65,150.83a.87.87,0,1,1-.87.87A.86.86,0,0,1,544.65,150.83Z"></path><path class="f64979b1-e4e6-487f-a923-58bbaefee8cb" d="M306.66,76.86h7.51l14.42,33.35h.12l14.55-33.35h7.33v42.55h-5V83.71h-.12l-15.26,35.7h-3.07l-15.26-35.7h-.12v35.7h-5Z"></path><path class="f64979b1-e4e6-487f-a923-58bbaefee8cb" d="M361.16,76.86h5v42.55h-5Z"></path><path class="f64979b1-e4e6-487f-a923-58bbaefee8cb" d="M397,84.37a8.84,8.84,0,0,0-7.75-3.91c-4.45,0-9.07,2.11-9.07,7.16,0,3.9,2.16,5.65,8.95,7.81,6.61,2.1,12.74,4.27,12.74,12.62s-7.27,12.44-15,12.44c-4.93,0-10.22-1.62-13.11-5.89l4.33-3.54c1.8,3.12,5.41,4.74,9.08,4.74,4.32,0,9.25-2.52,9.25-7.39,0-5.23-3.54-6.13-11.12-8.65-6-2-10.57-4.63-10.57-11.72,0-8.18,7-12.26,14.48-12.26,4.75,0,8.78,1.32,11.9,5Z"></path><path class="f64979b1-e4e6-487f-a923-58bbaefee8cb" d="M430.4,84.37a8.86,8.86,0,0,0-7.76-3.91c-4.44,0-9.07,2.11-9.07,7.16,0,3.9,2.16,5.65,8.95,7.81,6.62,2.1,12.75,4.27,12.75,12.62s-7.28,12.44-15,12.44c-4.93,0-10.22-1.62-13.1-5.89l4.32-3.54a10.32,10.32,0,0,0,9.08,4.74c4.33,0,9.26-2.52,9.26-7.39,0-5.23-3.55-6.13-11.12-8.65-6-2-10.58-4.63-10.58-11.72,0-8.18,7-12.26,14.48-12.26,4.75,0,8.78,1.32,11.9,5Z"></path><path class="f64979b1-e4e6-487f-a923-58bbaefee8cb" d="M443.62,76.86h5.05v42.55h-5.05Z"></path><path class="f64979b1-e4e6-487f-a923-58bbaefee8cb" d="M456.78,98.13c0-12.86,9.31-22.35,22.23-22.35s22.24,9.49,22.24,22.35-9.31,22.36-22.24,22.36S456.78,111,456.78,98.13Zm39.06,0c0-9.79-6.85-17.67-16.83-17.67s-16.82,7.88-16.82,17.67S469,115.8,479,115.8,495.84,107.93,495.84,98.13Z"></path><path class="f64979b1-e4e6-487f-a923-58bbaefee8cb" d="M509.36,76.86h6.37l24.64,35.34h.12V76.86h5v42.55h-6.37L514.53,84.07h-.12v35.34h-5Z"></path></g></g></svg> 